# xmcd CD database file
#
# Track frame offsets:
#	150
#	11059
#	22915
#	35546
#	47324
#	58969
#	71752
#	82060
#	93516
#	106269
#	118520
#	128859
#	142063
#	153521
#	165123
#
# Disc length: 2365 seconds
#
# Revision: 0
# Processed by: cddbd v1.5.1PL0 Copyright (c) Steve Scherf et al.
# Submitted via: CDex 1.51
#
DISCID=c3093b0f
DTITLE=Ray Charles - Compilation
DYEAR=1900
DGENRE=Blues
TTITLE0=A sentimental blues
TTITLE1=Can't you see darling
TTITLE2=Blues before sunrise
TTITLE3=If I give you my love
TTITLE4=How long
TTITLE5=Don't put all your dreams in one basket
TTITLE6=Going' down slow
TTITLE7=She's on the ball
TTITLE8=You'll neve miss the water
TTITLE9=Honey honey
TTITLE10=Ain't tht fine
TTITLE11=Alone in this city
TTITLE12=Le's have a ball
TTITLE13=Waht have I done
TTITLE14=Rockin' chair blues
EXTD=
EXTT0=
EXTT1=
EXTT2=
EXTT3=
EXTT4=
EXTT5=
EXTT6=
EXTT7=
EXTT8=
EXTT9=
EXTT10=
EXTT11=
EXTT12=
EXTT13=
EXTT14=
PLAYORDER=
